<svg width="20" height="20" viewBox="0 0 20 20" fill="none" xmlns="http://www.w3.org/2000/svg">
<path d="M11 9H17.95C17.7033 7.16667 16.94 5.61333 15.66 4.34C14.3867 3.06667 12.8333 2.30333 11 2.05M9 17.95V2.05C7 2.30333 5.33333 3.18333 4 4.69C2.66667 6.19667 2 7.96667 2 10C2 12.0333 2.66667 13.8033 4 15.31C5.33333 16.8233 7 17.7033 9 17.95ZM11 17.95C12.8333 17.7167 14.3933 16.96 15.68 15.68C16.96 14.3933 17.7167 12.8333 17.95 11H11M10 20C8.62 20 7.32 19.7367 6.1 19.21C4.88667 18.69 3.83 17.98 2.93 17.08C2.03 16.18 1.31667 15.12 0.79 13.9C0.263333 12.6867 0 11.3867 0 10C0 8.61333 0.263333 7.31333 0.79 6.1C1.31667 4.88667 2.03 3.83 2.93 2.93C3.83 2.03 4.88667 1.31667 6.1 0.79C7.32 0.263333 8.62 0 10 0C11.38 0 12.6767 0.263333 13.89 0.79C15.0967 1.31667 16.1533 2.03333 17.06 2.94C17.9733 3.84667 18.69 4.90333 19.21 6.11C19.7367 7.32333 20 8.62 20 10C20 11.3667 19.7367 12.66 19.21 13.88C18.69 15.0933 17.98 16.1533 17.08 17.06C16.18 17.9733 15.12 18.69 13.9 19.21C12.6867 19.7367 11.3867 20 10 20Z" fill="#FDF9F9"/>
</svg>
