<svg width="33" height="20" viewBox="0 0 33 20" fill="none" xmlns="http://www.w3.org/2000/svg">
<path d="M16.5 0.666664C15.2236 0.666664 13.9996 1.15833 13.097 2.0335C12.1945 2.90867 11.6875 4.09565 11.6875 5.33333C11.6875 6.57101 12.1945 7.75799 13.097 8.63316C13.9996 9.50833 15.2236 10 16.5 10C17.7764 10 19.0004 9.50833 19.903 8.63316C20.8055 7.75799 21.3125 6.57101 21.3125 5.33333C21.3125 4.09565 20.8055 2.90867 19.903 2.0335C19.0004 1.15833 17.7764 0.666664 16.5 0.666664ZM16.5 3.33333C17.047 3.33333 17.5716 3.54404 17.9584 3.91912C18.3452 4.29419 18.5625 4.8029 18.5625 5.33333C18.5625 5.86376 18.3452 6.37247 17.9584 6.74754C17.5716 7.12262 17.047 7.33333 16.5 7.33333C15.953 7.33333 15.4284 7.12262 15.0416 6.74754C14.6548 6.37247 14.4375 5.86376 14.4375 5.33333C14.4375 4.8029 14.6548 4.29419 15.0416 3.91912C15.4284 3.54404 15.953 3.33333 16.5 3.33333ZM7.5625 4.66666C6.65082 4.66666 5.77648 5.01785 5.13182 5.64297C4.48716 6.2681 4.125 7.11594 4.125 8C4.125 9.25333 4.85375 10.3333 5.89875 10.9067C6.39375 11.1733 6.9575 11.3333 7.5625 11.3333C8.1675 11.3333 8.73125 11.1733 9.22625 10.9067C9.735 10.6267 10.1613 10.2267 10.4775 9.74666C9.47375 8.48 8.9375 6.93333 8.9375 5.33333C8.9375 5.21333 8.9375 5.08 8.9375 4.96C8.525 4.77333 8.0575 4.66666 7.5625 4.66666ZM25.4375 4.66666C24.9425 4.66666 24.475 4.77333 24.0625 4.96C24.0625 5.08 24.0625 5.21333 24.0625 5.33333C24.0625 6.93333 23.5262 8.48 22.5225 9.74666C22.6875 10 22.8663 10.2 23.0725 10.4C23.2925 10.6 23.5125 10.7733 23.7738 10.9067C24.2688 11.1733 24.8325 11.3333 25.4375 11.3333C26.0425 11.3333 26.6062 11.1733 27.1012 10.9067C28.1462 10.3333 28.875 9.25333 28.875 8C28.875 7.11594 28.5128 6.2681 27.8682 5.64297C27.2235 5.01785 26.3492 4.66666 25.4375 4.66666ZM16.5 12.6667C13.2825 12.6667 6.875 14.2267 6.875 17.3333V19.3333H26.125V17.3333C26.125 14.2267 19.7175 12.6667 16.5 12.6667ZM6.47625 13.4C3.8225 13.7067 0 15.0133 0 17.3333V19.3333H4.125V16.76C4.125 15.4133 5.07375 14.2933 6.47625 13.4ZM26.5238 13.4C27.9263 14.2933 28.875 15.4133 28.875 16.76V19.3333H33V17.3333C33 15.0133 29.1775 13.7067 26.5238 13.4ZM16.5 15.3333C18.6038 15.3333 20.955 16 22.3162 16.6667H10.6838C12.045 16 14.3962 15.3333 16.5 15.3333Z" fill="black"/>
</svg>
